# xmcd
#
# Track frame offsets: 
#        150
#        6701
#        24768
#        41672
#        74767
#        118925
#        163227
#
# Disc length: 2649 seconds
#
# Revision: 0
# Processed by: cddbd v1.5.2PL0 Copyright (c) Steve Scherf et al.
# Submitted via: ExactAudioCopy v1.0b3
#
DISCID=630a5707
DTITLE=The Allman Brothers Band - Instant Live
DYEAR=2005
DGENRE=
TTITLE0=Track01  Crowd - Tuning
TTITLE1=Track02 Don't Keep Me Wonderin' 
TTITLE2=Track03 Trouble No More
TTITLE3=Track04 Ain't Wastin' Time No More 
TTITLE4=Track05 Woman Across The River 
TTITLE5=Track06  Stormy Monday 
TTITLE6=Track07 Every Hungry Woman
EXTD=
EXTT0=
EXTT1=
EXTT2=
EXTT3=
EXTT4=
EXTT5=
EXTT6=
PLAYORDER=
